<svg width="24" height="25" viewBox="0 0 24 25" fill="none" xmlns="http://www.w3.org/2000/svg">
<path d="M13.9997 17.5479C14.6618 17.5479 15.2666 17.4736 15.8182 17.3453L14.5883 16.0782C14.3972 16.0934 14.2033 16.1056 13.9997 16.1056C10.254 16.1056 8.80297 13.3322 8.45158 12.5C8.71544 11.8934 9.0718 11.3342 9.50716 10.8436L8.52858 9.83543C7.452 11.0375 7.04391 12.2483 7.03621 12.2721C6.98793 12.4202 6.98793 12.5805 7.03621 12.7286C7.05091 12.7762 8.65668 17.5479 13.9997 17.5479ZM13.9997 7.4521C12.7138 7.4521 11.6575 7.73766 10.7769 8.15952L8.19469 5.5L7.20491 6.51968L19.8046 19.5L20.7944 18.4803L18.4711 16.0869C20.3009 14.68 20.954 12.7589 20.9638 12.7286C21.0121 12.5805 21.0121 12.4202 20.9638 12.2721C20.9484 12.2238 19.3426 7.4521 13.9997 7.4521ZM17.48 15.0658L15.884 13.4216C16.017 13.1404 16.0996 12.831 16.0996 12.5C16.0996 11.3166 15.1483 10.3366 13.9997 10.3366C13.6784 10.3366 13.3781 10.4217 13.1058 10.5594L11.8402 9.25564C12.5349 9.01003 13.2652 8.88786 13.9997 8.89435C17.7453 8.89435 19.1963 11.6678 19.5477 12.5C19.3363 12.999 18.7315 14.1889 17.48 15.0658Z" fill="#484A4B"/>
</svg>
