<svg width="45" height="44" viewBox="0 0 45 44" fill="none" xmlns="http://www.w3.org/2000/svg">
<path d="M39.9781 18.4094H38.5013V18.3333H22.0013V25.6666H32.3624C30.8508 29.9355 26.7891 33 22.0013 33C15.9266 33 11.0013 28.0747 11.0013 22C11.0013 15.9252 15.9266 11 22.0013 11C24.8054 11 27.3565 12.0578 29.2989 13.7857L34.4845 8.60013C31.2101 5.54854 26.8303 3.66663 22.0013 3.66663C11.8767 3.66663 3.66797 11.8754 3.66797 22C3.66797 32.1245 11.8767 40.3333 22.0013 40.3333C32.1259 40.3333 40.3346 32.1245 40.3346 22C40.3346 20.7707 40.2081 19.5708 39.9781 18.4094Z" fill="#FFC107"/>
<path d="M5.78186 13.4667L11.8053 17.8841C13.4351 13.849 17.3823 11 22.0014 11C24.8054 11 27.3565 12.0578 29.2989 13.7857L34.4845 8.60013C31.2102 5.54854 26.8304 3.66663 22.0014 3.66663C14.9595 3.66663 8.85269 7.64221 5.78186 13.4667Z" fill="#FF3D00"/>
<path d="M22.0013 40.3334C26.7368 40.3334 31.0396 38.5211 34.2929 35.574L28.6187 30.7725C26.7781 32.1668 24.4901 33 22.0013 33C17.2328 33 13.1839 29.9594 11.6586 25.7162L5.68005 30.3224C8.71422 36.2597 14.8761 40.3334 22.0013 40.3334Z" fill="#4CAF50"/>
<path d="M39.9781 18.4095H38.5013V18.3334H22.0013V25.6667H32.3624C31.6364 27.7173 30.3173 29.4855 28.616 30.7735C28.6169 30.7725 28.6178 30.7725 28.6188 30.7716L34.2929 35.5731C33.8914 35.938 40.3347 31.1667 40.3347 22C40.3347 20.7708 40.2082 19.5709 39.9781 18.4095Z" fill="#1976D2"/>
</svg>
