<svg width="46" height="46" viewBox="0 0 46 46" fill="none" xmlns="http://www.w3.org/2000/svg">
<g clip-path="url(#clip0_52_88)">
<path d="M21.6069 0.271417C12.982 1.22505 6.04462 8.28196 5.10713 16.8647C4.16965 25.8289 9.23207 33.8394 16.9195 36.891C17.4819 37.0818 18.0444 36.7003 18.0444 35.9374V32.8858C18.0444 32.8858 17.2945 33.0765 16.357 33.0765C13.732 33.0765 12.607 30.7878 12.4195 29.4527C12.232 28.6898 11.857 28.1176 11.2945 27.5454C10.732 27.3547 10.5446 27.3547 10.5446 27.164C10.5446 26.7825 11.107 26.7825 11.2945 26.7825C12.4195 26.7825 13.357 28.1176 13.732 28.6898C14.6695 30.2156 15.7945 30.597 16.357 30.597C17.107 30.597 17.6694 30.4063 18.0444 30.2156C18.2319 28.8805 18.7944 27.5454 19.9194 26.7825C15.607 25.8289 12.4195 23.3494 12.4195 19.1534C12.4195 17.0554 13.357 14.9574 14.6695 13.4316C14.482 13.0501 14.2945 12.0965 14.2945 10.7614C14.2945 9.9985 14.2945 8.85414 14.857 7.70978C14.857 7.70978 17.482 7.70978 20.1069 10.1892C21.0444 9.80778 22.3569 9.61705 23.6694 9.61705C24.9818 9.61705 26.2943 9.80778 27.4193 10.1892C29.8568 7.70978 32.6692 7.70978 32.6692 7.70978C33.0442 8.85414 33.0442 9.9985 33.0442 10.7614C33.0442 12.2872 32.8567 13.0501 32.6692 13.4316C33.9817 14.9574 34.9192 16.8647 34.9192 19.1534C34.9192 23.3494 31.7317 25.8289 27.4193 26.7825C28.5443 27.7361 29.2943 29.4527 29.2943 31.1692V36.1281C29.2943 36.7003 29.8568 37.2725 30.6068 37.0818C37.5442 34.2209 42.4191 27.3547 42.4191 19.3441C42.4191 7.90051 32.8567 -1.06367 21.6069 0.271417Z" fill="black"/>
</g>
<defs>
<clipPath id="clip0_52_88">
<rect width="44.9993" height="45.7745" fill="white" transform="translate(0.995605 0.139404)"/>
</clipPath>
</defs>
</svg>
