<svg width="40" height="42" viewBox="0 0 40 42" fill="none" xmlns="http://www.w3.org/2000/svg">
<path d="M20 0C8.95536 0 0 9.40313 0 21C0 32.5969 8.95536 42 20 42C31.0446 42 40 32.5969 40 21C40 9.40313 31.0446 0 20 0ZM29.6116 15.8297C29.625 16.05 29.625 16.2797 29.625 16.5047C29.625 23.3859 24.6339 31.3125 15.5134 31.3125C12.7009 31.3125 10.0938 30.4547 7.89732 28.9781C8.29911 29.025 8.68304 29.0437 9.09375 29.0437C11.4152 29.0437 13.5491 28.2188 15.25 26.8219C13.0714 26.775 11.2411 25.275 10.6161 23.2125C11.3795 23.3297 12.067 23.3297 12.8527 23.1188C11.7309 22.8795 10.7227 22.2398 9.99918 21.3084C9.2757 20.377 8.88164 19.2113 8.88393 18.0094V17.9437C9.54018 18.3328 10.3125 18.5719 11.1205 18.6047C10.4413 18.1293 9.88419 17.4854 9.49871 16.7298C9.11323 15.9743 8.91127 15.1306 8.91071 14.2734C8.91071 13.3031 9.15179 12.4172 9.58482 11.6484C10.8299 13.2578 12.3836 14.5741 14.1449 15.5117C15.9062 16.4493 17.8357 16.9873 19.808 17.0906C19.1071 13.5516 21.625 10.6875 24.6518 10.6875C26.0804 10.6875 27.3661 11.3156 28.2723 12.3281C29.3929 12.1078 30.4643 11.6672 31.4196 11.0766C31.0491 12.2812 30.2723 13.2984 29.2411 13.9406C30.2411 13.8281 31.2054 13.5375 32.0982 13.1297C31.4241 14.1703 30.5804 15.0938 29.6116 15.8297V15.8297Z" fill="white"/>
</svg>
