<svg width="40" height="43" viewBox="0 0 40 43" fill="none" xmlns="http://www.w3.org/2000/svg">
<path fill-rule="evenodd" clip-rule="evenodd" d="M19.9642 0.000131658C15.2239 0.000835905 10.6384 1.86329 7.0281 5.25434C3.41775 8.64539 1.01804 13.3438 0.258216 18.5091C-0.501606 23.6745 0.428032 28.9698 2.88084 33.4477C5.33364 37.9257 9.1496 41.2943 13.6461 42.9509C14.6444 43.1555 15.0723 42.4785 15.0723 41.896V38.1488C9.52438 39.4713 8.35489 35.1889 8.35489 35.1889C7.96476 33.8393 7.14365 32.6923 6.04445 31.9613C4.23317 30.6072 6.18707 30.623 6.18707 30.623C6.81974 30.7217 7.42361 30.9786 7.95258 31.3743C8.48154 31.77 8.9216 32.2938 9.23914 32.9059C9.79157 33.9997 10.7149 34.8066 11.8061 35.1491C12.8972 35.4916 14.067 35.3416 15.058 34.7323C15.1386 33.6152 15.5847 32.5686 16.3131 31.7881C11.8919 31.2213 7.22819 29.332 7.22819 20.893C7.19586 18.7012 7.93163 16.5803 9.28192 14.9731C8.67074 13.0746 8.7422 10.9897 9.48159 9.14763C9.48159 9.14763 11.1502 8.54934 14.9725 11.3991C18.2406 10.415 21.6878 10.415 24.9559 11.3991C28.7638 8.54934 30.4325 9.14763 30.4325 9.14763C31.1719 10.9897 31.2433 13.0746 30.6321 14.9731C31.9824 16.5803 32.7182 18.7012 32.6859 20.893C32.6859 29.3634 28.0222 31.2213 23.5725 31.7723C24.0491 32.3057 24.4167 32.9456 24.6504 33.6491C24.8841 34.3525 24.9786 35.103 24.9273 35.8501V41.896C24.9273 42.6202 25.2839 43.1713 26.3535 42.9509C30.856 41.2922 34.6759 37.9172 37.1283 33.4309C39.5807 28.9447 40.5052 23.6408 39.736 18.4702C38.9669 13.2996 36.5543 8.60063 32.931 5.21589C29.3077 1.83114 24.7106 -0.0179704 19.9642 0.000131658Z" fill="white"/>
</svg>
