<svg width="36" height="36" viewBox="0 0 36 36" fill="none" xmlns="http://www.w3.org/2000/svg">
<path d="M33.3 0H2.7C1.2 0 0 1.2 0 2.55V33.3C0 34.65 1.2 35.85 2.7 35.85H33.3C34.8 35.85 36 34.65 36 33.3V2.55C36 1.2 34.8 0 33.3 0ZM10.65 30.6H5.4V13.5H10.65V30.6ZM8.1 11.1C6.45 11.1 4.95 9.75 4.95 7.95C4.95 6.15 6.3 4.8 8.1 4.8C9.75 4.8 11.25 6.15 11.25 7.95C11.25 9.75 9.75 11.1 8.1 11.1ZM30.75 30.45H25.5V22.05C25.5 20.1 25.5 17.4 22.65 17.4C19.8 17.4 19.5 19.65 19.5 21.75V30.3H14.25V13.5H19.2V15.75H19.35C20.1 14.4 21.9 12.9 24.45 12.9C29.85 12.9 30.9 16.5 30.9 21.15V30.45H30.75Z" fill="white"/>
</svg>
